<svg width="15" height="14" viewBox="0 0 15 14" fill="none" xmlns="http://www.w3.org/2000/svg">
<path d="M12.843 5.77592H4.29203L7.60903 2.60292C7.83806 2.35802 7.96548 2.03524 7.96548 1.69992C7.96548 1.36461 7.83806 1.04182 7.60903 0.796923C7.49846 0.678783 7.36481 0.584603 7.21637 0.520216C7.06792 0.45583 6.90784 0.422607 6.74603 0.422607C6.58422 0.422607 6.42413 0.45583 6.27569 0.520216C6.12724 0.584603 5.99359 0.678783 5.88303 0.796923L0.360027 6.15192C0.241566 6.26927 0.148483 6.40971 0.0865557 6.56453C0.0246279 6.71935 -0.00482422 6.88525 2.68953e-05 7.05192V7.06792C-0.00482422 7.2346 0.0246279 7.40049 0.0865557 7.55531C0.148483 7.71013 0.241566 7.85057 0.360027 7.96792L5.87503 13.3129C5.98559 13.4311 6.11924 13.5252 6.26769 13.5896C6.41613 13.654 6.57622 13.6872 6.73803 13.6872C6.89984 13.6872 7.05992 13.654 7.20837 13.5896C7.35681 13.5252 7.49046 13.4311 7.60103 13.3129C7.83006 13.068 7.95748 12.7452 7.95748 12.4099C7.95748 12.0746 7.83006 11.7518 7.60103 11.5069L4.28803 8.33392H12.839C13.0033 8.33029 13.1653 8.29431 13.3157 8.22806C13.4661 8.16181 13.6019 8.06658 13.7155 7.9478C13.8291 7.82903 13.9181 7.68904 13.9776 7.53584C14.0371 7.38263 14.0657 7.21922 14.062 7.05492C14.0675 6.89052 14.0401 6.72667 13.9816 6.57295C13.923 6.41924 13.8344 6.27874 13.7209 6.15966C13.6074 6.04059 13.4713 5.94532 13.3206 5.87943C13.1699 5.81354 13.0075 5.77836 12.843 5.77592V5.77592Z" fill="white"/>
</svg>
