<svg width="47" height="47" viewBox="0 0 47 47" fill="none" xmlns="http://www.w3.org/2000/svg">
<path d="M9.638 26.452H15.093V42.909H9.638V26.452Z" fill="#FF4B00"/>
<path d="M31.459 26.452H36.914V42.909H31.459V26.452Z" fill="#D03B00"/>
<path d="M15.093 26.452H31.459V42.909H15.093V26.452Z" fill="#FFE470"/>
<path d="M23.276 26.452H31.459V42.909H23.276V26.452Z" fill="#FDBF00"/>
<path d="M35.551 8.63099V27.815H11.002V8.63099L23.276 5.90298L35.551 8.63099Z" fill="#FFE470"/>
<path d="M35.55 8.63099V27.815H23.276V5.90298L35.55 8.63099Z" fill="#FDBF00"/>
<path d="M8.27399 19.487V25.087L10.32 27.815L13.73 25.087V15.45L8.27399 19.487Z" fill="#FF4B00"/>
<path d="M32.823 15.45V25.088L35.551 27.816L38.279 25.088V19.488L32.823 15.45Z" fill="#D03B00"/>
<path d="M43.734 26.452V41.545L42.3701 44.273L41.006 41.545V26.452H43.734Z" fill="#5A5A5A"/>
<path d="M38.279 26.452V41.545L36.915 44.273L35.551 41.545V26.452H38.279Z" fill="#5A5A5A"/>
<path d="M32.823 26.452V41.545L31.459 44.273L30.095 41.545V26.452H32.823Z" fill="#5A5A5A"/>
<path d="M27.368 26.452V41.545L26.004 44.273L24.64 41.545V26.452H27.368Z" fill="#5A5A5A"/>
<path d="M21.912 26.452V41.545L20.548 44.273L19.184 41.545V26.452H21.912Z" fill="#6E6E6E"/>
<path d="M16.457 26.452V41.545L15.093 44.273L13.729 41.545V26.452H16.457Z" fill="#6E6E6E"/>
<path d="M11.002 26.452V41.545L9.63799 44.273L8.27399 41.545V26.452H11.002Z" fill="#6E6E6E"/>
<path d="M5.54697 26.452V41.545L4.18297 44.273L2.81897 41.545V26.452H5.54697Z" fill="#6E6E6E"/>
<path d="M38.274 15.448V19.485C36.3962 19.3507 34.5533 18.9084 32.819 18.176C31.3579 17.5833 29.9893 16.7841 28.755 15.803C26.3443 13.932 24.4566 11.4711 23.274 8.65801C21.8556 12.038 19.4261 14.8963 16.319 16.841C15.496 17.3612 14.629 17.8082 13.728 18.177C11.9973 18.9193 10.153 19.3623 8.27399 19.487V15.448C8.27898 11.709 9.68022 8.10666 12.2031 5.34704C14.7259 2.58742 18.1884 0.869509 21.912 0.53001C22.8181 0.421068 23.7339 0.421068 24.64 0.53001C28.3628 0.870449 31.8244 2.58877 34.3464 5.34829C36.8684 8.10782 38.2691 11.7096 38.274 15.448Z" fill="#FF7816"/>
<path d="M23.276 8.65801V0.448007C23.7319 0.447426 24.1875 0.47481 24.64 0.530007C28.3632 0.869976 31.8252 2.5881 34.3477 5.34766C36.8701 8.10723 38.2711 11.7093 38.276 15.448V19.485C36.3982 19.3507 34.5553 18.9084 32.821 18.176C31.3599 17.5833 29.9913 16.7841 28.757 15.803C26.3463 13.932 24.4586 11.4711 23.276 8.65801Z" fill="#FF4B00"/>
<path d="M0 25.088H46.552V27.816H0V25.088Z" fill="#6E6E6E"/>
<path d="M23.276 25.088H46.552V27.816H23.276V25.088Z" fill="#5A5A5A"/>
<path d="M0 41.545H46.552V47H0V41.545Z" fill="#ECECF1"/>
<path d="M23.276 41.545H46.552V47H23.276V41.545Z" fill="#D3D3D8"/>
</svg>
