<svg width="46" height="48" viewBox="0 0 46 48" fill="none" xmlns="http://www.w3.org/2000/svg">
<path d="M10.647 26C10.4965 25.1912 10.5831 24.3561 10.8963 23.5955C11.2096 22.8348 11.7362 22.1809 12.4126 21.7127C13.0891 21.2445 13.8865 20.9819 14.7087 20.9566C15.531 20.9312 16.3431 21.1443 17.047 21.57C17.067 21.47 17.09 21.37 17.12 21.27C17.3278 20.5576 17.7567 19.9296 18.3447 19.4769C18.9327 19.0241 19.6494 18.77 20.3913 18.7511C21.1332 18.7323 21.8619 18.9498 22.4721 19.3722C23.0822 19.7946 23.5424 20.4 23.786 21.101C24.2957 20.653 24.905 20.3333 25.5632 20.1683C26.2214 20.0033 26.9095 19.9979 27.5702 20.1524C28.2309 20.3069 28.8452 20.617 29.3619 21.0568C29.8786 21.4966 30.2829 22.0535 30.541 22.681C30.9682 21.9803 31.6557 21.4775 32.453 21.2829C33.2502 21.0883 34.0921 21.2178 34.794 21.643C34.7905 21.0959 34.9048 20.5545 35.1291 20.0555C35.3535 19.5565 35.6826 19.1116 36.0941 18.7511C36.5057 18.3906 36.99 18.1229 37.5142 17.9662C38.0383 17.8095 38.5901 17.7675 39.132 17.843C39.6738 17.9185 40.1931 18.1097 40.6545 18.4037C41.1159 18.6978 41.5086 19.0876 41.8059 19.5469C42.1032 20.0061 42.2982 20.524 42.3776 21.0653C42.457 21.6066 42.4189 22.1587 42.266 22.684C42.266 22.684 38.55 28.484 24.854 28.484C12.713 28.485 10.647 26 10.647 26Z" fill="#CBF4FF"/>
<path d="M43.258 25.71L40.837 37.639C40.5246 39.3742 39.6137 40.945 38.2626 42.0778C36.9116 43.2107 35.2061 43.8339 33.443 43.839H12.433C10.6699 43.8339 8.9644 43.2107 7.61338 42.0778C6.26237 40.945 5.35139 39.3742 5.03902 37.639L2.61902 25.71C2.61902 25.71 9.15001 30.22 22.299 30.22C35.448 30.22 43.258 25.71 43.258 25.71Z" fill="#FCEFDE"/>
<path d="M38.76 27.62L36.727 37.639C36.4146 39.3742 35.5037 40.945 34.1526 42.0778C32.8016 43.2107 31.0961 43.8339 29.333 43.839H33.442C35.2051 43.8339 36.9106 43.2107 38.2617 42.0778C39.6127 40.945 40.5237 39.3742 40.836 37.639L43.257 25.71C41.8165 26.4764 40.3118 27.1155 38.76 27.62Z" fill="#FCE4C6"/>
<path d="M22.938 30.623C14.995 30.623 7.50304 28.672 1.83804 25.128C1.67849 25.0281 1.54016 24.8978 1.43097 24.7445C1.32178 24.5911 1.24386 24.4178 1.20165 24.2343C1.15945 24.0509 1.15379 23.8609 1.185 23.6753C1.21621 23.4897 1.28367 23.312 1.38354 23.1525C1.48341 22.9929 1.61373 22.8546 1.76706 22.7454C1.92039 22.6362 2.09372 22.5583 2.27716 22.5161C2.4606 22.4739 2.65056 22.4682 2.83619 22.4994C3.02182 22.5306 3.19949 22.5981 3.35904 22.698C8.75904 26.076 15.845 27.765 22.934 27.765C30.023 27.765 37.112 26.076 42.509 22.698C42.6686 22.5981 42.8463 22.5306 43.0319 22.4994C43.2175 22.4682 43.4075 22.4739 43.5909 22.5161C43.7744 22.5583 43.9477 22.6362 44.101 22.7454C44.2544 22.8546 44.3847 22.9929 44.4845 23.1525C44.5844 23.312 44.6519 23.4897 44.6831 23.6753C44.7143 23.8609 44.7086 24.0509 44.6664 24.2343C44.6242 24.4178 44.5463 24.5911 44.4371 24.7445C44.3279 24.8978 44.1896 25.0281 44.03 25.128C38.373 28.672 30.881 30.623 22.938 30.623Z" fill="#E7C33C"/>
<path d="M20.387 8.52998L11.056 10.49C11.0464 10.492 11.0364 10.4922 11.0267 10.4903C11.017 10.4885 11.0077 10.4848 10.9995 10.4795C10.9912 10.4741 10.9841 10.4671 10.9785 10.4589C10.9729 10.4508 10.969 10.4416 10.967 10.432C10.7858 9.57043 10.9543 8.6722 11.4353 7.93483C11.9163 7.19746 12.6705 6.68134 13.532 6.49998L16.517 5.87197C17.3786 5.6908 18.2768 5.85925 19.0142 6.34026C19.7515 6.82127 20.2676 7.57547 20.449 8.43698C20.4516 8.44719 20.4521 8.45784 20.4503 8.46824C20.4486 8.47864 20.4446 8.48856 20.4388 8.49733C20.4329 8.50611 20.4253 8.51356 20.4164 8.51918C20.4075 8.5248 20.3974 8.52848 20.387 8.52998Z" fill="#E7C33C"/>
<path d="M6.64705 19.0823C7.28126 18.4481 7.28126 17.4199 6.64705 16.7856C6.01284 16.1514 4.98458 16.1514 4.35037 16.7856C3.71616 17.4199 3.71616 18.4481 4.35037 19.0823C4.98458 19.7165 6.01284 19.7165 6.64705 19.0823Z" fill="#EED05E"/>
<path d="M13.438 43.033L15.465 41.006C15.6826 40.8039 15.9699 40.6941 16.2668 40.6996C16.5636 40.7051 16.8468 40.8254 17.0567 41.0354C17.2666 41.2453 17.387 41.5284 17.3924 41.8252C17.3979 42.1221 17.2881 42.4095 17.086 42.627L14.356 45.357C13.3786 46.3341 12.0531 46.883 10.671 46.883H6.76603C6.46782 46.8742 6.18478 46.7495 5.97696 46.5355C5.76914 46.3214 5.65289 46.0348 5.65289 45.7365C5.65289 45.4382 5.76914 45.1515 5.97696 44.9375C6.18478 44.7234 6.46782 44.5988 6.76603 44.59H10.019C10.6222 44.5899 11.2192 44.4688 11.7747 44.2338C12.3302 43.9988 12.8329 43.6548 13.253 43.222L13.438 43.033Z" fill="#E7C33C"/>
<path d="M32.4381 43.033L30.4111 41.006C30.1935 40.8039 29.9061 40.6941 29.6093 40.6996C29.3125 40.7051 29.0293 40.8254 28.8194 41.0354C28.6095 41.2453 28.4891 41.5284 28.4837 41.8252C28.4782 42.1221 28.588 42.4095 28.7901 42.627L31.5201 45.357C32.4975 46.3341 33.823 46.883 35.2051 46.883H39.1101C39.4083 46.8742 39.6913 46.7495 39.8991 46.5355C40.1069 46.3214 40.2232 46.0348 40.2232 45.7365C40.2232 45.4382 40.1069 45.1515 39.8991 44.9375C39.6913 44.7234 39.4083 44.5988 39.1101 44.59H35.8571C35.2539 44.5899 34.6569 44.4688 34.1014 44.2338C33.5459 43.9988 33.0432 43.6548 32.6231 43.222L32.4381 43.033Z" fill="#E7C33C"/>
<path d="M31.964 18.157C32.9454 18.157 33.741 17.3614 33.741 16.38C33.741 15.3986 32.9454 14.603 31.964 14.603C30.9826 14.603 30.187 15.3986 30.187 16.38C30.187 17.3614 30.9826 18.157 31.964 18.157Z" fill="#CBF4FF"/>
<path d="M37.786 13.592C38.5106 13.592 39.098 13.0046 39.098 12.28C39.098 11.5554 38.5106 10.968 37.786 10.968C37.0614 10.968 36.474 11.5554 36.474 12.28C36.474 13.0046 37.0614 13.592 37.786 13.592Z" fill="#CBF4FF"/>
<path d="M45.074 22.79C44.8838 22.4844 44.6185 22.2326 44.3034 22.0586C43.9884 21.8846 43.634 21.7942 43.274 21.796C43.217 21.796 43.16 21.796 43.103 21.804C43.1422 20.7089 42.7805 19.6371 42.0856 18.7897C41.3908 17.9423 40.4107 17.3776 39.3291 17.2015C38.2475 17.0254 37.1389 17.25 36.2111 17.8332C35.2834 18.4163 34.6003 19.318 34.29 20.369C34.2627 20.4623 34.2387 20.5566 34.218 20.652C33.6041 20.4805 32.957 20.4661 32.3361 20.6103C31.7152 20.7545 31.1405 21.0525 30.665 21.477C29.9478 20.4461 28.8654 19.7264 27.6373 19.4639C26.4091 19.2013 25.1271 19.4155 24.051 20.063C23.6505 19.407 23.0771 18.8741 22.3935 18.5228C21.71 18.1714 20.9429 18.0152 20.1764 18.0713C19.4099 18.1274 18.6737 18.3937 18.0486 18.8408C17.4235 19.2879 16.9337 19.8987 16.633 20.606C16.4997 20.5526 16.361 20.5056 16.217 20.465C15.496 20.2566 14.7371 20.2148 13.9976 20.3427C13.2581 20.4706 12.5573 20.7649 11.9482 21.2033C11.3391 21.6417 10.8376 22.2129 10.4816 22.8735C10.1255 23.5342 9.92428 24.2671 9.89303 25.017C8.6431 24.5904 7.42105 24.086 6.23403 23.507V20.124C6.35211 20.085 6.46682 20.0365 6.57703 19.979L7.24703 20.649C7.377 20.7692 7.54848 20.8344 7.7255 20.831C7.90252 20.8275 8.07132 20.7557 8.19651 20.6305C8.32171 20.5053 8.39356 20.3365 8.39701 20.1594C8.40047 19.9824 8.33524 19.811 8.21503 19.681L7.54503 19.011C7.719 18.6792 7.80989 18.3101 7.80989 17.9355C7.80989 17.5608 7.719 17.1918 7.54503 16.86L8.21503 16.19C8.33524 16.06 8.40047 15.8885 8.39701 15.7115C8.39356 15.5345 8.32171 15.3657 8.19651 15.2405C8.07132 15.1153 7.90252 15.0434 7.7255 15.04C7.54848 15.0365 7.377 15.1018 7.24703 15.222L6.57703 15.892C6.45221 15.8268 6.32166 15.7732 6.18703 15.732V6.18398C6.19847 5.17528 6.59061 4.20815 7.2849 3.47633C7.97919 2.7445 8.92434 2.30202 9.93104 2.23753C10.9377 2.17304 11.9316 2.4913 12.7136 3.12855C13.4956 3.7658 14.008 4.67498 14.148 5.67398L13.314 5.84998C12.2942 6.0648 11.4012 6.67554 10.8313 7.54811C10.2613 8.42068 10.0609 9.48377 10.274 10.504C10.2789 10.6059 10.3054 10.7057 10.3518 10.7966C10.3981 10.8876 10.4632 10.9677 10.5428 11.0316C10.6224 11.0955 10.7147 11.1417 10.8135 11.1673C10.9123 11.1929 11.0154 11.1972 11.116 11.18L16.227 10.104C16.4 10.062 16.5499 9.95427 16.6448 9.80368C16.7398 9.6531 16.7724 9.47146 16.7357 9.29725C16.6991 9.12304 16.596 8.96995 16.4484 8.87041C16.3008 8.77086 16.1203 8.73269 15.945 8.76398L11.559 9.68698C11.561 9.10062 11.7638 8.53264 12.1337 8.07771C12.5037 7.62279 13.0184 7.30841 13.592 7.18698L16.724 6.52798C17.2982 6.40702 17.8965 6.48682 18.4188 6.75402C18.9412 7.02122 19.3561 7.45963 19.594 7.99598L19.327 8.05198C19.154 8.09398 19.0042 8.20168 18.9092 8.35227C18.8143 8.50286 18.7817 8.68449 18.8183 8.8587C18.855 9.03291 18.958 9.18601 19.1056 9.28555C19.2532 9.38509 19.4338 9.42326 19.609 9.39198L20.601 9.18298C20.6995 9.15717 20.7914 9.11106 20.871 9.04763C20.9505 8.98419 21.0159 8.90482 21.063 8.81462C21.1101 8.72441 21.1378 8.62536 21.1443 8.52381C21.1509 8.42227 21.1361 8.32048 21.101 8.22498C20.8853 7.20586 20.2742 6.31392 19.4017 5.74477C18.5292 5.17562 17.4667 4.97574 16.447 5.18898L15.494 5.38898C15.2937 4.04938 14.5944 2.83506 13.5361 1.98958C12.4779 1.1441 11.1392 0.729997 9.78843 0.830339C8.43767 0.930682 7.1748 1.53805 6.25313 2.5306C5.33147 3.52316 4.81918 4.82749 4.81903 6.18198V15.729C4.68403 15.7705 4.55314 15.8244 4.42803 15.89L3.75803 15.22C3.62805 15.0998 3.45657 15.0345 3.27955 15.038C3.10254 15.0414 2.93373 15.1133 2.80854 15.2385C2.68335 15.3637 2.61149 15.5325 2.60804 15.7095C2.60459 15.8865 2.66981 16.058 2.79003 16.188L3.46003 16.858C3.28647 17.1897 3.19581 17.5586 3.19581 17.933C3.19581 18.3074 3.28647 18.6762 3.46003 19.008L2.79003 19.678C2.17703 20.291 3.13103 21.278 3.75803 20.646L4.42803 19.976C4.56764 20.0492 4.71442 20.1078 4.86603 20.151V22.787C4.47869 22.5703 4.09936 22.3466 3.72803 22.116C1.40103 20.664 -0.825973 24.267 1.47403 25.709C1.64003 25.809 1.80803 25.915 1.97403 26.016L4.36003 37.775C4.61664 39.1247 5.20215 40.3904 6.0647 41.4598C6.92725 42.5292 8.04022 43.3694 9.30503 43.906H6.76603C6.28769 43.9172 5.83271 44.115 5.49836 44.4573C5.16401 44.7995 4.97683 45.259 4.97683 45.7375C4.97683 46.2159 5.16401 46.6754 5.49836 47.0177C5.83271 47.3599 6.28769 47.5578 6.76603 47.569H10.674C11.4488 47.5712 12.2162 47.4197 12.932 47.1232C13.6478 46.8268 14.2977 46.3913 14.844 45.842L16.266 44.417C16.372 44.484 29.718 44.524 29.718 44.524L31.036 45.842C31.5822 46.3912 32.2319 46.8267 32.9475 47.1231C33.6631 47.4195 34.4304 47.5711 35.205 47.569C35.3867 47.569 35.5609 47.4968 35.6894 47.3683C35.8179 47.2399 35.89 47.0657 35.89 46.884C35.89 46.7023 35.8179 46.5281 35.6894 46.3996C35.5609 46.2711 35.3867 46.199 35.205 46.199C34.6105 46.2003 34.0216 46.0838 33.4723 45.8562C32.9231 45.6286 32.4244 45.2944 32.005 44.873L29.274 42.144C28.866 41.736 29.5 41.064 29.927 41.491L32.127 43.701C32.6121 44.1981 33.1915 44.5935 33.8313 44.8639C34.4711 45.1344 35.1584 45.2745 35.853 45.276H39.106C39.2247 45.2815 39.3367 45.3325 39.4187 45.4185C39.5008 45.5044 39.5465 45.6187 39.5465 45.7375C39.5465 45.8563 39.5008 45.9705 39.4187 46.0565C39.3367 46.1424 39.2247 46.1935 39.106 46.199C38.9244 46.199 38.7501 46.2711 38.6217 46.3996C38.4932 46.5281 38.421 46.7023 38.421 46.884C38.421 47.0657 38.4932 47.2399 38.6217 47.3683C38.7501 47.4968 38.9244 47.569 39.106 47.569C39.5918 47.569 40.0576 47.376 40.4011 47.0325C40.7446 46.6891 40.9375 46.2232 40.9375 45.7375C40.9375 45.2517 40.7446 44.7859 40.4011 44.4424C40.0576 44.0989 39.5918 43.906 39.106 43.906H36.563C37.8278 43.3694 38.9408 42.5292 39.8034 41.4598C40.6659 40.3904 41.2514 39.1247 41.508 37.775L43.894 26.017C44.0634 25.9156 44.23 25.813 44.394 25.709C44.8711 25.4119 45.2108 24.9376 45.3383 24.3902C45.4658 23.8429 45.3708 23.2673 45.074 22.79ZM4.83703 18.599C4.70585 18.4676 4.61657 18.3003 4.58046 18.1182C4.54435 17.9361 4.56303 17.7473 4.63415 17.5758C4.70526 17.4044 4.82562 17.2578 4.98 17.1547C5.13439 17.0516 5.31587 16.9965 5.50153 16.9965C5.68718 16.9965 5.86867 17.0516 6.02305 17.1547C6.17744 17.2578 6.29779 17.4044 6.36891 17.5758C6.44002 17.7473 6.4587 17.9361 6.42259 18.1182C6.38648 18.3003 6.2972 18.4676 6.16603 18.599C5.98976 18.7752 5.75074 18.8741 5.50153 18.8741C5.25231 18.8741 5.0133 18.7752 4.83703 18.599ZM11.401 24.219C11.5543 23.6916 11.8268 23.2065 12.1974 22.8013C12.5681 22.3961 13.0271 22.0816 13.5388 21.8822C14.0505 21.6828 14.6012 21.6037 15.1483 21.6512C15.6955 21.6987 16.2243 21.8714 16.694 22.156C16.7883 22.2131 16.895 22.2466 17.005 22.2536C17.1149 22.2607 17.225 22.2411 17.3258 22.1966C17.4266 22.152 17.5152 22.0838 17.584 21.9977C17.6528 21.9116 17.6998 21.8101 17.721 21.702C17.738 21.613 17.758 21.533 17.779 21.459C17.9451 20.8851 18.2897 20.379 18.7626 20.0141C19.2356 19.6491 19.8125 19.4442 20.4098 19.4291C21.007 19.4139 21.5935 19.5893 22.0844 19.9298C22.5753 20.2703 22.945 20.7583 23.14 21.323C23.1768 21.4292 23.2392 21.5248 23.3216 21.6012C23.404 21.6776 23.504 21.7326 23.6127 21.7612C23.7214 21.7899 23.8355 21.7914 23.9449 21.7655C24.0543 21.7397 24.1557 21.6873 24.24 21.613C24.6678 21.2367 25.1793 20.968 25.7319 20.8293C26.2845 20.6907 26.8622 20.686 27.417 20.8157C27.9717 20.9454 28.4875 21.2058 28.9213 21.5751C29.3551 21.9444 29.6944 22.412 29.911 22.939C29.9588 23.0562 30.0381 23.1579 30.1402 23.2328C30.2423 23.3077 30.3631 23.3528 30.4893 23.3631C30.6155 23.3735 30.7421 23.3487 30.855 23.2915C30.9679 23.2342 31.0628 23.1468 31.129 23.039C31.4628 22.4937 31.9988 22.1027 32.6199 21.9513C33.241 21.8 33.8968 21.9005 34.444 22.231C34.5482 22.2939 34.6672 22.3279 34.7889 22.3295C34.9106 22.3311 35.0305 22.3003 35.1363 22.2402C35.2421 22.1801 35.33 22.0929 35.3909 21.9876C35.4519 21.8823 35.4837 21.7627 35.483 21.641C35.4799 21.1944 35.5725 20.7524 35.7545 20.3446C35.9365 19.9368 36.2038 19.5727 36.5383 19.2768C36.8728 18.981 37.2668 18.7602 37.6938 18.6294C38.1208 18.4985 38.5709 18.4607 39.0137 18.5183C39.4565 18.576 39.8819 18.7278 40.2611 18.9637C40.6404 19.1995 40.9647 19.5138 41.2123 19.8854C41.4599 20.2571 41.625 20.6775 41.6966 21.1183C41.7681 21.5591 41.7444 22.0101 41.627 22.441C35.9164 25.6083 29.47 27.2101 22.941 27.084C18.9924 27.1022 15.0616 26.5532 11.269 25.454C11.2399 25.0371 11.2845 24.6183 11.401 24.217V24.219ZM13.874 44.873C13.4547 45.2944 12.956 45.6286 12.4067 45.8562C11.8575 46.0838 11.2686 46.2003 10.674 46.199H6.76503C6.64634 46.1935 6.53435 46.1424 6.45232 46.0565C6.37029 45.9705 6.32451 45.8563 6.32451 45.7375C6.32451 45.6187 6.37029 45.5044 6.45232 45.4185C6.53435 45.3325 6.64634 45.2815 6.76503 45.276H10.018C10.7126 45.2745 11.4 45.1344 12.0398 44.864C12.6796 44.5936 13.259 44.1982 13.744 43.701L15.944 41.491C16.0316 41.4091 16.1475 41.3645 16.2673 41.3665C16.3872 41.3685 16.5015 41.417 16.5863 41.5017C16.671 41.5865 16.7195 41.7008 16.7215 41.8207C16.7235 41.9405 16.6789 42.0564 16.597 42.144L13.874 44.873ZM43.674 24.548C38.12 28.024 30.757 29.939 22.941 29.939C18.8066 29.9582 14.6899 29.3961 10.712 28.269C10.5387 28.2224 10.354 28.2457 10.1977 28.3339C10.0414 28.422 9.92589 28.568 9.8761 28.7405C9.82631 28.9129 9.84619 29.098 9.93145 29.2559C10.0167 29.4138 10.1605 29.532 10.332 29.585C14.4331 30.7477 18.6773 31.328 22.94 31.309C29.6584 31.4 36.3016 29.8882 42.319 26.899L40.167 37.499C39.8854 39.0555 39.076 40.4673 37.8751 41.4968C36.6742 42.5263 35.1553 43.1105 33.574 43.151C33.409 43.029 30.891 40.522 30.891 40.522C29.199 38.83 26.605 41.502 28.343 43.154H17.529C19.245 41.485 16.678 38.826 14.981 40.522C14.981 40.522 12.463 43.029 12.298 43.151C10.7184 43.1093 9.20129 42.5251 8.00171 41.4965C6.80214 40.4679 5.99325 39.0577 5.71103 37.503L3.55803 26.897C4.58169 27.4316 5.6317 27.9142 6.70403 28.343C6.8727 28.4105 7.06129 28.4082 7.22829 28.3367C7.39529 28.2651 7.52703 28.1302 7.59453 27.9615C7.66202 27.7928 7.65975 27.6042 7.58821 27.4372C7.51666 27.2702 7.3817 27.1385 7.21303 27.071C5.47213 26.3803 3.79618 25.5359 2.20503 24.548C2.04478 24.4391 1.93298 24.2723 1.89308 24.0827C1.85319 23.8931 1.88831 23.6955 1.99108 23.5312C2.09384 23.367 2.25625 23.2489 2.4442 23.2019C2.63215 23.1549 2.83102 23.1825 2.99903 23.279C8.89303 26.968 16.049 28.45 22.938 28.45C30.468 28.45 37.549 26.613 42.877 23.279C43.0453 23.1733 43.2487 23.1388 43.4424 23.183C43.6361 23.2273 43.8043 23.3467 43.91 23.515C44.0157 23.6833 44.0502 23.8866 44.006 24.0804C43.9617 24.2741 43.8423 24.4423 43.674 24.548Z" fill="black"/>
<path d="M31.963 18.838C32.4498 18.838 32.9256 18.6937 33.3303 18.4232C33.735 18.1528 34.0504 17.7685 34.2367 17.3188C34.4229 16.8691 34.4717 16.3743 34.3767 15.8969C34.2818 15.4195 34.0474 14.981 33.7032 14.6368C33.359 14.2926 32.9205 14.0582 32.4431 13.9633C31.9657 13.8683 31.4709 13.9171 31.0212 14.1033C30.5715 14.2896 30.1872 14.605 29.9167 15.0097C29.6463 15.4144 29.502 15.8902 29.502 16.377C29.5028 17.0294 29.7623 17.6549 30.2237 18.1163C30.685 18.5777 31.3106 18.8372 31.963 18.838ZM31.963 15.285C32.179 15.285 32.3901 15.349 32.5697 15.469C32.7493 15.589 32.8892 15.7596 32.9719 15.9591C33.0545 16.1586 33.0762 16.3782 33.034 16.59C32.9919 16.8019 32.8879 16.9964 32.7352 17.1492C32.5824 17.3019 32.3879 17.4059 32.1761 17.448C31.9642 17.4901 31.7446 17.4685 31.5451 17.3859C31.3456 17.3032 31.175 17.1633 31.055 16.9837C30.935 16.8041 30.871 16.593 30.871 16.377C30.8721 16.088 30.9876 15.8111 31.1922 15.6071C31.3968 15.403 31.674 15.2883 31.963 15.288V15.285Z" fill="black"/>
<path d="M37.787 14.276C38.1826 14.276 38.5693 14.1587 38.8982 13.9389C39.2271 13.7192 39.4834 13.4068 39.6348 13.0413C39.7862 12.6759 39.8258 12.2738 39.7486 11.8858C39.6715 11.4978 39.481 11.1415 39.2013 10.8618C38.9216 10.5821 38.5652 10.3916 38.1772 10.3144C37.7893 10.2372 37.3871 10.2768 37.0217 10.4282C36.6562 10.5796 36.3439 10.8359 36.1241 11.1648C35.9044 11.4937 35.787 11.8804 35.787 12.276C35.787 12.8064 35.9978 13.3151 36.3728 13.6902C36.7479 14.0653 37.2566 14.276 37.787 14.276ZM37.787 11.652C37.9111 11.652 38.0323 11.6887 38.1354 11.7576C38.2385 11.8265 38.3188 11.9245 38.3663 12.039C38.4138 12.1536 38.4262 12.2797 38.402 12.4013C38.3778 12.5229 38.3181 12.6346 38.2304 12.7223C38.1427 12.81 38.031 12.8697 37.9094 12.8939C37.7877 12.9181 37.6617 12.9057 37.5471 12.8582C37.4325 12.8108 37.3346 12.7304 37.2657 12.6273C37.1968 12.5242 37.16 12.403 37.16 12.279C37.1606 12.1129 37.2268 11.9539 37.3443 11.8365C37.4618 11.7192 37.621 11.6532 37.787 11.653V11.652Z" fill="black"/>
<path d="M16.475 23.18C16.1154 22.962 15.7105 22.8297 15.2916 22.7933C14.8727 22.757 14.451 22.8175 14.0592 22.9703C13.6675 23.123 13.3161 23.3639 13.0324 23.6743C12.7487 23.9846 12.5402 24.3561 12.4231 24.76C12.3948 24.8472 12.3843 24.9393 12.3923 25.0306C12.4003 25.122 12.4265 25.2108 12.4695 25.2919C12.5124 25.3729 12.5712 25.4445 12.6424 25.5024C12.7135 25.5603 12.7955 25.6033 12.8836 25.6289C12.9717 25.6544 13.064 25.6621 13.1551 25.6513C13.2462 25.6406 13.3342 25.6116 13.4139 25.5662C13.4936 25.5208 13.5633 25.4598 13.619 25.387C13.6747 25.3141 13.7152 25.2308 13.738 25.142C13.7967 24.9399 13.9011 24.754 14.0431 24.5987C14.1851 24.4434 14.361 24.3229 14.5571 24.2465C14.7532 24.1701 14.9642 24.1399 15.1739 24.1582C15.3835 24.1765 15.5861 24.2428 15.766 24.352C15.843 24.4005 15.9289 24.4332 16.0187 24.4482C16.1085 24.4631 16.2004 24.4601 16.2889 24.4391C16.3775 24.4182 16.461 24.3798 16.5346 24.3262C16.6081 24.2726 16.6703 24.2049 16.7174 24.127C16.7645 24.0492 16.7957 23.9627 16.809 23.8726C16.8223 23.7826 16.8175 23.6908 16.7949 23.6027C16.7724 23.5145 16.7325 23.4317 16.6775 23.3591C16.6226 23.2865 16.5538 23.2256 16.475 23.18Z" fill="black"/>
<path d="M26.407 23.39C26.4793 23.3503 26.5597 23.3279 26.6421 23.3242C26.7244 23.3206 26.8065 23.336 26.882 23.3691C26.9575 23.4023 27.0243 23.4523 27.0773 23.5154C27.1304 23.5785 27.1683 23.6529 27.188 23.733C27.2077 23.8222 27.245 23.9065 27.2978 23.9811C27.3505 24.0556 27.4177 24.1189 27.4952 24.1671C27.5728 24.2153 27.6592 24.2475 27.7494 24.2619C27.8396 24.2762 27.9318 24.2723 28.0205 24.2505C28.1092 24.2287 28.1926 24.1894 28.2659 24.1349C28.3391 24.0804 28.4007 24.0117 28.4471 23.9331C28.4935 23.8544 28.5236 23.7672 28.5358 23.6767C28.548 23.5862 28.5419 23.4941 28.518 23.406C28.4483 23.1217 28.314 22.8574 28.1257 22.6333C27.9374 22.4093 27.7 22.2316 27.432 22.1141C27.164 21.9965 26.8725 21.9422 26.5802 21.9553C26.2878 21.9685 26.0024 22.0488 25.746 22.19C25.5919 22.2801 25.479 22.4269 25.4315 22.599C25.384 22.7711 25.4055 22.9549 25.4916 23.1114C25.5776 23.2678 25.7214 23.3845 25.8922 23.4365C26.063 23.4886 26.2473 23.4719 26.406 23.39H26.407Z" fill="black"/>
</svg>
