<svg width="51" height="43" viewBox="0 0 51 43" fill="none" xmlns="http://www.w3.org/2000/svg">
<path d="M3.40002 8.15002H47.6V31.1H3.40002V8.15002Z" fill="#ED539D"/>
<path d="M47.6001 3.89998V8.14998H42.5001V3.89998C42.5001 3.22367 42.7687 2.57507 43.2469 2.09685C43.7252 1.61864 44.3738 1.34998 45.0501 1.34998C45.7264 1.34998 46.375 1.61864 46.8532 2.09685C47.3314 2.57507 47.6001 3.22367 47.6001 3.89998Z" fill="#B39A7C"/>
<path d="M8.50002 3.89998V8.14998H3.40002V3.89998C3.40002 3.22367 3.66868 2.57507 4.1469 2.09685C4.62512 1.61864 5.27372 1.34998 5.95002 1.34998C6.62633 1.34998 7.27493 1.61864 7.75315 2.09685C8.23136 2.57507 8.50002 3.22367 8.50002 3.89998Z" fill="#B39A7C"/>
<path d="M48.4501 37.05V42.15H45.9001L44.2001 37.05H48.4501Z" fill="#B39A7C"/>
<path d="M6.80005 37.05L5.10005 42.15H2.55005V37.05H6.80005Z" fill="#B39A7C"/>
<path d="M0.849976 30.25H50.15V37.05H0.849976V30.25Z" fill="#FFDA44"/>
<path d="M42.5 16.65V21.75H27.2V16.65C27.2013 16.1996 27.3809 15.7679 27.6994 15.4494C28.0179 15.1309 28.4496 14.9513 28.9 14.95H40.8C41.2505 14.9513 41.6821 15.1309 42.0006 15.4494C42.3192 15.7679 42.4987 16.1996 42.5 16.65Z" fill="#D8D7DA"/>
<path d="M23.8 16.65V21.75H8.5V16.65C8.50132 16.1996 8.68085 15.7679 8.99938 15.4494C9.3179 15.1309 9.74954 14.9513 10.2 14.95H22.1C22.5505 14.9513 22.9821 15.1309 23.3006 15.4494C23.6192 15.7679 23.7987 16.1996 23.8 16.65Z" fill="#D8D7DA"/>
<path d="M48.45 26.85V30.25H2.54996V26.85C2.54606 25.8485 2.8421 24.8688 3.39996 24.037C3.86356 23.3336 4.49461 22.7565 5.23642 22.3573C5.97823 21.9581 6.80757 21.7494 7.64997 21.75H43.35C44.1923 21.7493 45.0216 21.9578 45.7634 22.3568C46.5052 22.7558 47.1362 23.3328 47.6 24.036C48.158 24.868 48.4541 25.8482 48.45 26.85Z" fill="#5AAAE7"/>
<path d="M50.15 29.4H49.3V26.85C49.2991 25.7743 49.0053 24.7193 48.45 23.798V3.9C48.45 2.99826 48.0918 2.13346 47.4542 1.49584C46.8165 0.858213 45.9517 0.5 45.05 0.5C44.1483 0.5 43.2835 0.858213 42.6458 1.49584C42.0082 2.13346 41.65 2.99826 41.65 3.9V7.3H9.35V3.9C9.35 2.99826 8.99179 2.13346 8.35416 1.49584C7.71654 0.858213 6.85174 0.5 5.95 0.5C5.04826 0.5 4.18346 0.858213 3.54584 1.49584C2.90821 2.13346 2.55 2.99826 2.55 3.9V23.8C1.9951 24.7207 1.70126 25.775 1.7 26.85V29.4H0.85C0.624566 29.4 0.408365 29.4896 0.248959 29.649C0.0895534 29.8084 0 30.0246 0 30.25V37.05C0 37.2754 0.0895534 37.4916 0.248959 37.651C0.408365 37.8104 0.624566 37.9 0.85 37.9H1.7V42.15C1.7 42.3754 1.78955 42.5916 1.94896 42.751C2.10837 42.9104 2.32457 43 2.55 43H5.1C5.27768 42.9986 5.45059 42.9423 5.59505 42.8388C5.73951 42.7354 5.84846 42.5898 5.907 42.422L7.407 37.9H43.588L45.088 42.422C45.1466 42.5899 45.2557 42.7356 45.4004 42.8391C45.545 42.9426 45.7181 42.9988 45.896 43H48.446C48.6714 43 48.8876 42.9104 49.047 42.751C49.2064 42.5916 49.296 42.3754 49.296 42.15V37.9H50.146C50.3714 37.9 50.5876 37.8104 50.747 37.651C50.9064 37.4916 50.996 37.2754 50.996 37.05V30.25C50.996 30.0253 50.907 29.8097 50.7485 29.6504C50.5899 29.4911 50.3747 29.4011 50.15 29.4ZM43.35 3.9C43.35 3.67675 43.394 3.45569 43.4794 3.24944C43.5648 3.04318 43.6901 2.85578 43.8479 2.69792C44.0058 2.54006 44.1932 2.41484 44.3994 2.3294C44.6057 2.24397 44.8268 2.2 45.05 2.2C45.2732 2.2 45.4943 2.24397 45.7006 2.3294C45.9068 2.41484 46.0942 2.54006 46.2521 2.69792C46.4099 2.85578 46.5352 3.04318 46.6206 3.24944C46.706 3.45569 46.75 3.67675 46.75 3.9V7.3H43.35V3.9ZM4.25 3.9C4.25 3.44913 4.42911 3.01673 4.74792 2.69792C5.06673 2.37911 5.49913 2.2 5.95 2.2C6.40087 2.2 6.83327 2.37911 7.15208 2.69792C7.47089 3.01673 7.65 3.44913 7.65 3.9V7.3H4.25V3.9ZM4.25 9H46.75V21.971C45.7531 21.2743 44.5663 20.9004 43.35 20.9V16.65C43.3479 15.9743 43.0786 15.327 42.6008 14.8492C42.123 14.3714 41.4757 14.1021 40.8 14.1H28.9C28.2243 14.1021 27.577 14.3714 27.0992 14.8492C26.6214 15.327 26.3521 15.9743 26.35 16.65V20.9H24.65V16.65C24.6479 15.9743 24.3786 15.327 23.9008 14.8492C23.423 14.3714 22.7757 14.1021 22.1 14.1H10.2C9.52435 14.1021 8.87697 14.3714 8.39921 14.8492C7.92145 15.327 7.65211 15.9743 7.65 16.65V20.9C6.43374 20.9004 5.24693 21.2743 4.25 21.971V9ZM41.65 16.65V20.9H28.05V16.65C28.05 16.4246 28.1396 16.2084 28.299 16.049C28.4584 15.8896 28.6746 15.8 28.9 15.8H40.8C41.0254 15.8 41.2416 15.8896 41.401 16.049C41.5604 16.2084 41.65 16.4246 41.65 16.65ZM22.95 16.65V20.9H9.35V16.65C9.35 16.4246 9.43955 16.2084 9.59896 16.049C9.75836 15.8896 9.97457 15.8 10.2 15.8H22.1C22.3254 15.8 22.5416 15.8896 22.701 16.049C22.8604 16.2084 22.95 16.4246 22.95 16.65ZM3.4 26.85C3.4 25.7228 3.84777 24.6418 4.6448 23.8448C5.44183 23.0478 6.52283 22.6 7.65 22.6H43.35C44.4772 22.6 45.5582 23.0478 46.3552 23.8448C47.1522 24.6418 47.6 25.7228 47.6 26.85V29.4H3.4V26.85ZM4.488 41.3H3.4V37.9H5.619L4.488 41.3ZM47.6 41.3H46.512L45.381 37.9H47.6V41.3ZM49.3 36.2H1.7V31.1H49.3V36.2Z" fill="black"/>
</svg>
