<svg width="19" height="27" viewBox="0 0 19 27" fill="none" xmlns="http://www.w3.org/2000/svg">
<path d="M5.386 25.585C5.38706 25.9419 5.52931 26.2839 5.7817 26.5363C6.03408 26.7887 6.37608 26.9309 6.733 26.932H12.119C12.4759 26.9309 12.8179 26.7887 13.0703 26.5363C13.3227 26.2839 13.4649 25.9419 13.466 25.585V24.239H5.386V25.585ZM9.426 1.67428e-06C7.41945 -0.000981041 5.46498 0.638655 3.84724 1.82575C2.22951 3.01285 1.033 4.68541 0.431979 6.59984C-0.169042 8.51427 -0.143186 10.5706 0.505782 12.4693C1.15475 14.368 2.39293 16.01 4.04 17.156V20.2C4.04106 20.5569 4.18331 20.8989 4.4357 21.1513C4.68808 21.4037 5.03008 21.5459 5.387 21.547H13.467C13.8238 21.5457 14.1655 21.4033 14.4177 21.151C14.6698 20.8986 14.8119 20.5568 14.813 20.2V17.156C16.4601 16.0099 17.6984 14.3679 18.3473 12.4691C18.9963 10.5702 19.022 8.51384 18.4209 6.59936C17.8197 4.68488 16.6231 3.01233 15.0052 1.82531C13.3873 0.638288 11.4326 -0.00119422 9.426 1.67428e-06ZM13.264 14.947L12.119 15.755V18.855H6.733V15.755L5.588 14.947C4.40947 14.1294 3.52285 12.9567 3.05738 11.5999C2.5919 10.2431 2.57189 8.77318 3.00026 7.40424C3.42864 6.0353 4.283 4.83894 5.43885 3.98952C6.59469 3.14009 7.99161 2.682 9.426 2.682C10.8604 2.682 12.2573 3.14009 13.4132 3.98952C14.569 4.83894 15.4234 6.0353 15.8517 7.40424C16.2801 8.77318 16.2601 10.2431 15.7946 11.5999C15.3292 12.9567 14.4425 14.1294 13.264 14.947Z" fill="#578CD0"/>
<path d="M5 24H14V26C14 26.2652 13.8946 26.5196 13.7071 26.7071C13.5196 26.8946 13.2652 27 13 27H6C5.73478 27 5.48043 26.8946 5.29289 26.7071C5.10536 26.5196 5 26.2652 5 26V24Z" fill="#002D67"/>
</svg>
