<svg width="29" height="29" viewBox="0 0 29 29" fill="none" xmlns="http://www.w3.org/2000/svg">
<path d="M17.844 14.496C17.844 15.17 17.6441 15.8289 17.2697 16.3894C16.8952 16.9498 16.3629 17.3866 15.7402 17.6446C15.1175 17.9025 14.4322 17.97 13.7711 17.8385C13.1101 17.707 12.5028 17.3824 12.0262 16.9058C11.5496 16.4292 11.225 15.822 11.0935 15.1609C10.962 14.4998 11.0295 13.8145 11.2874 13.1918C11.5454 12.5691 11.9822 12.0368 12.5426 11.6623C13.1031 11.2879 13.762 11.088 14.436 11.088C15.3399 11.088 16.2067 11.4471 16.8458 12.0862C17.485 12.7253 17.844 13.5921 17.844 14.496Z" stroke="#002D67" stroke-width="2.5" stroke-linecap="round" stroke-linejoin="round"/>
<path d="M22.84 17.9C22.6886 18.2427 22.6435 18.6229 22.7103 18.9915C22.7772 19.3601 22.9529 19.7003 23.215 19.968L23.283 20.036C23.4941 20.2471 23.6616 20.4977 23.7758 20.7735C23.89 21.0493 23.9489 21.345 23.9489 21.6435C23.9489 21.942 23.89 22.2377 23.7758 22.5135C23.6616 22.7893 23.4941 23.0399 23.283 23.251C23.0719 23.4621 22.8213 23.6296 22.5455 23.7438C22.2697 23.858 21.974 23.9168 21.6755 23.9168C21.377 23.9168 21.0813 23.858 20.8055 23.7438C20.5297 23.6296 20.2791 23.4621 20.068 23.251L20 23.183C19.7342 22.9274 19.3994 22.7551 19.0369 22.6874C18.6744 22.6196 18.3 22.6595 17.9599 22.8019C17.6197 22.9443 17.3286 23.1832 17.1226 23.489C16.9165 23.7948 16.8043 24.1542 16.8 24.523V24.716C16.8 25.3186 16.5606 25.8965 16.1345 26.3225C15.7085 26.7486 15.1306 26.988 14.528 26.988C13.9254 26.988 13.3475 26.7486 12.9215 26.3225C12.4954 25.8965 12.256 25.3186 12.256 24.716V24.616C12.2473 24.2397 12.1255 23.8748 11.9065 23.5687C11.6875 23.2627 11.3813 23.0296 11.028 22.9C10.6853 22.7486 10.3051 22.7035 9.93648 22.7703C9.56786 22.8371 9.22773 23.0129 8.96 23.275L8.892 23.343C8.68243 23.5603 8.43166 23.7337 8.15435 23.853C7.87704 23.9723 7.57874 24.0352 7.27686 24.038C6.97498 24.0407 6.67557 23.9834 6.39611 23.8692C6.11665 23.7549 5.86274 23.5862 5.64921 23.3728C5.43567 23.1594 5.26678 22.9056 5.15241 22.6262C5.03803 22.3468 4.98045 22.0475 4.98304 21.7456C4.98563 21.4437 5.04833 21.1454 5.16748 20.868C5.28663 20.5906 5.45984 20.3397 5.677 20.13L5.745 20.062C6.00064 19.7962 6.17293 19.4614 6.24064 19.0989C6.30836 18.7364 6.26854 18.362 6.1261 18.0219C5.98366 17.6817 5.74482 17.3906 5.439 17.1845C5.13318 16.9785 4.77375 16.8663 4.405 16.862H4.212C3.60943 16.862 3.03154 16.6226 2.60546 16.1965C2.17937 15.7705 1.94 15.1926 1.94 14.59C1.94 13.9874 2.17937 13.4095 2.60546 12.9835C3.03154 12.5574 3.60943 12.318 4.212 12.318H4.312C4.68885 12.3095 5.05439 12.1876 5.36088 11.9682C5.66737 11.7488 5.90056 11.442 6.03 11.088C6.18137 10.7453 6.22654 10.3651 6.1597 9.99648C6.09285 9.62786 5.91706 9.28773 5.655 9.02L5.587 8.952C5.37516 8.74113 5.20699 8.49055 5.09211 8.2146C4.97724 7.93865 4.91792 7.64275 4.91756 7.34384C4.91719 7.04494 4.97578 6.7489 5.08998 6.47267C5.20417 6.19644 5.37173 5.94544 5.58305 5.73405C5.79438 5.52266 6.04532 5.35503 6.32152 5.24075C6.59771 5.12646 6.89373 5.06778 7.19264 5.06806C7.49154 5.06833 7.78746 5.12756 8.06344 5.24234C8.33943 5.35713 8.59007 5.52522 8.801 5.737L8.869 5.805C9.13698 6.06767 9.47765 6.24383 9.84689 6.31069C10.2161 6.37755 10.5969 6.33202 10.94 6.18H11.031C11.367 6.03606 11.6535 5.79702 11.8554 5.49231C12.0572 5.18759 12.1655 4.8305 12.167 4.465V4.272C12.167 3.66943 12.4064 3.09154 12.8325 2.66545C13.2585 2.23937 13.8364 2 14.439 2C15.0416 2 15.6195 2.23937 16.0455 2.66545C16.4716 3.09154 16.711 3.66943 16.711 4.272V4.372C16.7153 4.74075 16.8275 5.10018 17.0336 5.406C17.2396 5.71181 17.5307 5.95066 17.8709 6.0931C18.211 6.23554 18.5854 6.27535 18.9479 6.20764C19.3104 6.13992 19.6452 5.96763 19.911 5.712L19.979 5.644C20.4053 5.21766 20.9836 4.97815 21.5865 4.97815C22.1894 4.97815 22.7677 5.21766 23.194 5.644C23.6203 6.07034 23.8598 6.64857 23.8598 7.2515C23.8598 7.85443 23.6203 8.43266 23.194 8.859L23.126 8.927C22.8639 9.19473 22.6882 9.53486 22.6213 9.90348C22.5545 10.2721 22.5996 10.6523 22.751 10.995V11.086C22.8949 11.422 23.134 11.7085 23.4387 11.9104C23.7434 12.1122 24.1005 12.2205 24.466 12.222H24.659C25.2616 12.222 25.8395 12.4614 26.2655 12.8875C26.6916 13.3135 26.931 13.8914 26.931 14.494C26.931 15.0966 26.6916 15.6745 26.2655 16.1005C25.8395 16.5266 25.2616 16.766 24.659 16.766H24.559C24.193 16.7665 23.8352 16.8742 23.5298 17.0757C23.2243 17.2772 22.9845 17.5638 22.84 17.9V17.9Z" stroke="#588DD0" stroke-width="2.5" stroke-linecap="round" stroke-linejoin="round"/>
</svg>
