<svg width="46" height="46" viewBox="0 0 46 46" fill="none" xmlns="http://www.w3.org/2000/svg">
<path d="M10.936 24.215H34.37V30.464H10.936V24.215Z" fill="#4D6378"/>
<path d="M27.336 30.464V24.215H17.966V30.464H10.936V40.615H34.37V30.464H27.336Z" fill="#42566B"/>
<path d="M45.306 45.306H34.37V24.215H45.306V45.306Z" fill="#F6BB00"/>
<path d="M0 0H10.936V17.966H0V0Z" fill="#F6BB00"/>
<path d="M0 24.215H10.936V45.306H0V24.215Z" fill="#F6BB00"/>
<path d="M41.4 26.559H42.962V29.684H41.4V26.559Z" fill="#EDA600"/>
<path d="M45.306 17.966H34.37V3.8147e-06H45.306V17.966Z" fill="#F6BB00"/>
<path d="M14.06 14.842H31.245V17.967H14.06V14.842Z" fill="#42566B"/>
<path d="M31.245 14.842L28.12 11.717H17.185L14.06 14.842H31.245Z" fill="#4D6378"/>
<path d="M20.31 26.559H24.997V28.121H20.31V26.559Z" fill="#02C26A"/>
<path d="M13 28C13.5523 28 14 27.5523 14 27C14 26.4477 13.5523 26 13 26C12.4477 26 12 26.4477 12 27C12 27.5523 12.4477 28 13 28Z" fill="#42566B"/>
<path d="M15.5 28C15.7761 28 16 27.5523 16 27C16 26.4477 15.7761 26 15.5 26C15.2239 26 15 26.4477 15 27C15 27.5523 15.2239 28 15.5 28Z" fill="#42566B"/>
<path d="M29.5 28C29.7761 28 30 27.5523 30 27C30 26.4477 29.7761 26 29.5 26C29.2239 26 29 26.4477 29 27C29 27.5523 29.2239 28 29.5 28Z" fill="#42566B"/>
<path d="M32 28C32.5523 28 33 27.5523 33 27C33 26.4477 32.5523 26 32 26C31.4477 26 31 26.4477 31 27C31 27.5523 31.4477 28 32 28Z" fill="#42566B"/>
<path d="M14.06 33.589H31.245V37.495H14.06V33.589Z" fill="#84D8E8"/>
<path d="M10.936 40.619H34.37V45.306H10.936V40.619Z" fill="#EDA600"/>
<path d="M10.936 0H22.653V11.717H10.936V0Z" fill="#EDA600"/>
<path d="M18.747 6.24899H20.309V9.37399H18.747V6.24899Z" fill="#CF8300"/>
<path d="M2.34302 12.498H3.90502V15.623H2.34302V12.498Z" fill="#EDA600"/>
<path d="M2.34302 26.559H3.90502V29.684H2.34302V26.559Z" fill="#EDA600"/>
<path d="M34.37 11.717L22.653 11.717V1.04904e-05L34.37 1.04904e-05V11.717Z" fill="#DE9400"/>
<path d="M24.996 6.24899H26.558V9.37399H24.996V6.24899Z" fill="#CF8300"/>
<path d="M41.4 12.498H42.962V15.623H41.4V12.498Z" fill="#EDA600"/>
</svg>
