<svg width="56" height="45" viewBox="0 0 56 45" fill="none" xmlns="http://www.w3.org/2000/svg">
<path d="M54.761 33.937V32.112C54.7605 31.9583 54.6992 31.8111 54.5905 31.7025C54.4819 31.5938 54.3347 31.5325 54.181 31.532H46.842C46.6883 31.5325 46.5411 31.5938 46.4325 31.7025C46.3238 31.8111 46.2626 31.9583 46.262 32.112V33.941L54.761 33.937Z" fill="#9CE8FF"/>
<path d="M45.021 40.976V43.742C45.0215 43.8957 45.0828 44.0429 45.1915 44.1516C45.3001 44.2602 45.4473 44.3215 45.601 44.322H46.646C46.7997 44.3215 46.9469 44.2602 47.0555 44.1516C47.1642 44.0429 47.2255 43.8957 47.226 43.742V40.976H45.021Z" fill="#FFAF68"/>
<path d="M53.794 43.742C53.7946 43.8957 53.8558 44.0429 53.9645 44.1516C54.0731 44.2602 54.2204 44.3215 54.374 44.322H55.419C55.5727 44.3215 55.7199 44.2602 55.8286 44.1516C55.9372 44.0429 55.9985 43.8957 55.999 43.742V40.976H53.793V43.742H53.794Z" fill="#FFAF68"/>
<path d="M55.999 38.5H45.021V41.333H55.999V38.5Z" fill="#CB7C52"/>
<path d="M55.409 33.581H45.609C45.4525 33.5815 45.3026 33.644 45.192 33.7547C45.0815 33.8655 45.0192 34.0155 45.019 34.172V38.872H55.997V34.172C55.9967 34.0159 55.9348 33.8661 55.8246 33.7554C55.7145 33.6447 55.5651 33.582 55.409 33.581Z" fill="#AB5436"/>
<path d="M51.632 37.463H49.389C49.1649 37.463 48.95 37.3739 48.7915 37.2155C48.633 37.057 48.544 36.8421 48.544 36.618C48.544 36.3938 48.633 36.1789 48.7915 36.0204C48.95 35.862 49.1649 35.7729 49.389 35.7729H51.632C51.8561 35.7729 52.0711 35.862 52.2295 36.0204C52.388 36.1789 52.477 36.3938 52.477 36.618C52.477 36.8421 52.388 37.057 52.2295 37.2155C52.0711 37.3739 51.8561 37.463 51.632 37.463Z" fill="#CB7C52"/>
<path d="M5.39698 42.044V18.384C5.39698 18.1664 5.31054 17.9577 5.15666 17.8038C5.00279 17.6499 4.79409 17.5635 4.57648 17.5635C4.35887 17.5635 4.15017 17.6499 3.9963 17.8038C3.84243 17.9577 3.75598 18.1664 3.75598 18.384V42.044H5.39698Z" fill="#08375E"/>
<path d="M8.42201 41.678H1.42201C1.27285 41.6785 1.12996 41.738 1.02449 41.8435C0.919021 41.9489 0.859536 42.0918 0.859009 42.241V43.769C0.859536 43.9181 0.919021 44.061 1.02449 44.1665C1.12996 44.272 1.27285 44.3314 1.42201 44.332H8.42201V41.678Z" fill="#63C3EA"/>
<g opacity="0.1">
<path opacity="0.1" d="M3.32401 43.767V42.239C3.32454 42.0898 3.38402 41.9469 3.48949 41.8415C3.59496 41.736 3.73785 41.6765 3.88701 41.676H1.42201C1.27285 41.6765 1.12996 41.736 1.02449 41.8415C0.919021 41.9469 0.859536 42.0898 0.859009 42.239V43.767C0.859536 43.9161 0.919021 44.059 1.02449 44.1645C1.12996 44.27 1.27285 44.3295 1.42201 44.33H3.88701C3.73785 44.3295 3.59496 44.27 3.48949 44.1645C3.38402 44.059 3.32454 43.9161 3.32401 43.767Z" fill="#231F20"/>
</g>
<path d="M9.157 19.33C9.15647 19.4791 9.09699 19.622 8.99152 19.7275C8.88605 19.833 8.74315 19.8924 8.594 19.893H0.563C0.413845 19.8924 0.27095 19.833 0.165481 19.7275C0.0600122 19.622 0.000527053 19.4791 0 19.33L0 9.10597C0.000527053 8.95682 0.0600122 8.81392 0.165481 8.70845C0.27095 8.60298 0.413845 8.5435 0.563 8.54297H8.593C8.74216 8.5435 8.88505 8.60298 8.99052 8.70845C9.09599 8.81392 9.15547 8.95682 9.156 9.10597V19.333L9.157 19.33Z" fill="#FF9F3D"/>
<path opacity="0.1" d="M2.422 19.33V9.10597C2.42253 8.95682 2.48201 8.81392 2.58748 8.70845C2.69295 8.60298 2.83585 8.5435 2.985 8.54297H0.563C0.413845 8.5435 0.27095 8.60298 0.165481 8.70845C0.0600122 8.81392 0.000527053 8.95682 0 9.10597V19.333C0.000527053 19.4821 0.0600122 19.625 0.165481 19.7305C0.27095 19.836 0.413845 19.8954 0.563 19.896H2.986C2.9118 19.8958 2.83836 19.8811 2.76986 19.8526C2.70136 19.8241 2.63915 19.7823 2.58678 19.7298C2.5344 19.6772 2.4929 19.6149 2.46463 19.5463C2.43635 19.4777 2.42187 19.4042 2.422 19.33Z" fill="#231F20"/>
<path d="M39.919 23.528H12.832C12.5334 23.5288 12.2472 23.6478 12.036 23.859C11.8248 24.0702 11.7058 24.3563 11.705 24.655V36.053H41.046V24.653C41.0447 24.3547 40.9255 24.069 40.7144 23.8583C40.5032 23.6475 40.2173 23.5288 39.919 23.528Z" fill="#FFBB4A"/>
<path opacity="0.1" d="M14.798 23.528H12.831C12.5323 23.5288 12.2461 23.6478 12.035 23.859C11.8238 24.0702 11.7048 24.3563 11.704 24.655V36.053H13.671V24.653C13.6723 24.3547 13.7915 24.069 14.0026 23.8583C14.2138 23.6475 14.4997 23.5288 14.798 23.528Z" fill="#231F20"/>
<path d="M27.196 23.528H25.555V36.054H27.196V23.528Z" fill="#FF9F3D"/>
<path d="M22.364 35.486C22.3635 35.6351 22.304 35.778 22.1985 35.8835C22.0931 35.989 21.9502 36.0485 21.801 36.049H16.739C16.5899 36.0485 16.447 35.989 16.3415 35.8835C16.236 35.778 16.1766 35.6351 16.176 35.486V30.42C16.1766 30.2708 16.236 30.1279 16.3415 30.0225C16.447 29.917 16.5899 29.8575 16.739 29.857H21.801C21.9502 29.8575 22.0931 29.917 22.1985 30.0225C22.304 30.1279 22.3635 30.2708 22.364 30.42V35.486Z" fill="#3EAF91"/>
<path d="M37.0341 35.486C37.0335 35.6351 36.974 35.778 36.8686 35.8835C36.7631 35.989 36.6202 36.0485 36.4711 36.049H31.4091C31.2599 36.0485 31.117 35.989 31.0115 35.8835C30.9061 35.778 30.8466 35.6351 30.8461 35.486V30.42C30.8466 30.2708 30.9061 30.1279 31.0115 30.0225C31.117 29.917 31.2599 29.8575 31.4091 29.857H36.4711C36.6202 29.8575 36.7631 29.917 36.8686 30.0225C36.974 30.1279 37.0335 30.2708 37.0341 30.42V35.486Z" fill="#3EAF91"/>
<path d="M41.046 35.637H11.705V41.434H41.046V35.637Z" fill="#FF9F3D"/>
<path d="M11.591 31.401H8.84003C8.53624 31.4021 8.24521 31.5233 8.03049 31.7382C7.81578 31.9531 7.69482 32.2442 7.69403 32.548V43.748C7.69429 43.9 7.75471 44.0457 7.86208 44.1532C7.96946 44.2608 8.11505 44.3215 8.26703 44.322H12.167C12.319 44.3215 12.4646 44.2608 12.572 44.1532C12.6793 44.0457 12.7398 43.9 12.74 43.748V32.548C12.7392 32.2437 12.6179 31.9521 12.4025 31.7371C12.1871 31.5221 11.8953 31.4013 11.591 31.401Z" fill="#FCC96C"/>
<path opacity="0.1" d="M10.112 43.749V32.549C10.1128 32.2452 10.2338 31.9541 10.4485 31.7392C10.6632 31.5243 10.9542 31.403 11.258 31.402H8.84003C8.53624 31.403 8.24521 31.5243 8.03049 31.7392C7.81578 31.9541 7.69482 32.2452 7.69403 32.549V43.749C7.69429 43.901 7.75471 44.0467 7.86208 44.1542C7.96946 44.2618 8.11505 44.3225 8.26703 44.323H10.685C10.533 44.3225 10.3875 44.2618 10.2801 44.1542C10.1727 44.0467 10.1123 43.901 10.112 43.749Z" fill="#231F20"/>
<path d="M43.912 31.401H41.165C40.8612 31.4021 40.5702 31.5233 40.3554 31.7382C40.1407 31.9531 40.0198 32.2442 40.019 32.548V43.748C40.0192 43.9 40.0797 44.0457 40.187 44.1532C40.2944 44.2608 40.44 44.3215 40.592 44.322H44.492C44.644 44.3215 44.7895 44.2608 44.8969 44.1532C45.0043 44.0457 45.0647 43.9 45.065 43.748V32.548C45.0646 32.397 45.0344 32.2475 44.9763 32.1081C44.9181 31.9688 44.8331 31.8422 44.726 31.7357C44.619 31.6292 44.492 31.5448 44.3523 31.4874C44.2126 31.4299 44.063 31.4006 43.912 31.401Z" fill="#FCC96C"/>
<path opacity="0.1" d="M41.864 43.749V32.549C41.8648 32.2452 41.9858 31.9541 42.2005 31.7392C42.4152 31.5243 42.7062 31.403 43.01 31.402H41.164C40.8602 31.403 40.5692 31.5243 40.3545 31.7392C40.1397 31.9541 40.0188 32.2452 40.018 32.549V43.749C40.0183 43.901 40.0787 44.0467 40.1861 44.1542C40.2934 44.2618 40.439 44.3225 40.591 44.323H42.435C42.2834 44.3219 42.1383 44.261 42.0313 44.1535C41.9244 44.046 41.8643 43.9006 41.864 43.749Z" fill="#231F20"/>
<path d="M39.038 2.59296H13.714C13.5549 2.59296 13.4023 2.65617 13.2898 2.76869C13.1772 2.88121 13.114 3.03383 13.114 3.19296V17.176C13.114 17.3351 13.1772 17.4877 13.2898 17.6002C13.4023 17.7127 13.5549 17.776 13.714 17.776H39.037C39.1961 17.776 39.3488 17.7127 39.4613 17.6002C39.5738 17.4877 39.637 17.3351 39.637 17.176V3.19096C39.6365 3.03235 39.5732 2.8804 39.4609 2.76834C39.3487 2.65628 39.1966 2.59322 39.038 2.59296Z" fill="#AB5436"/>
<path d="M15.838 15.383C15.7511 15.3827 15.6678 15.3481 15.6064 15.2867C15.5449 15.2252 15.5103 15.1419 15.51 15.055V5.31201C15.5103 5.2251 15.5449 5.14182 15.6064 5.08037C15.6678 5.01891 15.7511 4.98427 15.838 4.98401H36.918C37.0049 4.98427 37.0882 5.01891 37.1496 5.08037C37.2111 5.14182 37.2457 5.2251 37.246 5.31201V15.052C37.2457 15.1389 37.2111 15.2222 37.1496 15.2836C37.0882 15.3451 37.0049 15.3797 36.918 15.38L15.838 15.383Z" fill="#B1E8FF"/>
<path d="M45.334 23.516C45.2698 23.5157 45.2074 23.4949 45.1559 23.4566C45.1045 23.4182 45.0666 23.3644 45.048 23.303C44.578 21.777 44.255 21.45 42.748 20.975C42.684 20.958 42.6275 20.9204 42.5871 20.868C42.5467 20.8155 42.5248 20.7512 42.5248 20.685C42.5248 20.6188 42.5467 20.5545 42.5871 20.502C42.6275 20.4495 42.684 20.4119 42.748 20.395C44.257 19.92 44.58 19.595 45.048 18.067C45.067 18.0058 45.1051 17.9524 45.1566 17.9144C45.2082 17.8764 45.2705 17.856 45.3345 17.856C45.3986 17.856 45.4609 17.8764 45.5125 17.9144C45.564 17.9524 45.602 18.0058 45.621 18.067C46.091 19.594 46.413 19.92 47.921 20.395C47.985 20.4119 48.0416 20.4495 48.082 20.502C48.1223 20.5545 48.1442 20.6188 48.1442 20.685C48.1442 20.7512 48.1223 20.8155 48.082 20.868C48.0416 20.9204 47.985 20.958 47.921 20.975C46.412 21.45 46.09 21.775 45.621 23.303C45.6024 23.3646 45.5644 23.4185 45.5127 23.4569C45.461 23.4952 45.3984 23.516 45.334 23.516Z" fill="#FFBB4A"/>
<path d="M49.46 11.459C49.3888 11.459 49.3195 11.436 49.2624 11.3935C49.2053 11.351 49.1635 11.2912 49.143 11.223C48.623 9.53301 48.265 9.171 46.594 8.644C46.526 8.62225 46.4666 8.57943 46.4245 8.52174C46.3823 8.46404 46.3596 8.39445 46.3596 8.32301C46.3596 8.25156 46.3823 8.18197 46.4245 8.12427C46.4666 8.06657 46.526 8.02376 46.594 8.00201C48.265 7.47601 48.623 7.114 49.143 5.423C49.1635 5.35485 49.2054 5.29512 49.2625 5.25266C49.3196 5.21019 49.3889 5.18726 49.46 5.18726C49.5312 5.18726 49.6005 5.21019 49.6576 5.25266C49.7147 5.29512 49.7565 5.35485 49.777 5.423C50.298 7.114 50.655 7.47601 52.326 8.00201C52.3941 8.02376 52.4534 8.06657 52.4956 8.12427C52.5377 8.18197 52.5604 8.25156 52.5604 8.32301C52.5604 8.39445 52.5377 8.46404 52.4956 8.52174C52.4534 8.57943 52.3941 8.62225 52.326 8.644C50.655 9.171 50.298 9.53201 49.777 11.223C49.7564 11.2911 49.7145 11.3508 49.6575 11.3933C49.6004 11.4358 49.5312 11.4588 49.46 11.459Z" fill="#FFBB4A"/>
<path d="M7.831 4.68298C7.77785 4.68292 7.72613 4.66577 7.68346 4.63409C7.64079 4.6024 7.60943 4.55784 7.594 4.50698C7.205 3.24398 6.938 2.97298 5.694 2.57998C5.64351 2.56346 5.59954 2.5314 5.56836 2.48839C5.53717 2.44538 5.52039 2.39361 5.52039 2.34048C5.52039 2.28736 5.53717 2.23559 5.56836 2.19258C5.59954 2.14956 5.64351 2.11751 5.694 2.10098C6.943 1.70798 7.21 1.43798 7.594 0.173985C7.60962 0.123319 7.64106 0.0789922 7.68371 0.0475044C7.72637 0.0160167 7.77798 -0.000976562 7.831 -0.000976562C7.88402 -0.000976562 7.93564 0.0160167 7.97829 0.0475044C8.02095 0.0789922 8.05239 0.123319 8.068 0.173985C8.457 1.43798 8.724 1.70798 9.968 2.10098C10.0185 2.11751 10.0625 2.14956 10.0937 2.19258C10.1248 2.23559 10.1416 2.28736 10.1416 2.34048C10.1416 2.39361 10.1248 2.44538 10.0937 2.48839C10.0625 2.5314 10.0185 2.56346 9.968 2.57998C8.719 2.97398 8.453 3.24398 8.068 4.50698C8.05243 4.55776 8.02104 4.60223 7.9784 4.63389C7.93576 4.66556 7.88411 4.68276 7.831 4.68298Z" fill="#FFBB4A"/>
<path d="M32.982 9.95996L29.437 15.382H36.918L33.373 9.95996C33.3556 9.92284 33.3279 9.89146 33.2933 9.86948C33.2587 9.84749 33.2185 9.83582 33.1775 9.83582C33.1365 9.83582 33.0964 9.84749 33.0617 9.86948C33.0271 9.89146 32.9995 9.92284 32.982 9.95996Z" fill="#86D5B5"/>
<path d="M26.138 7.30199L20.854 15.383H31.812L26.528 7.30199C26.5104 7.26515 26.4828 7.23403 26.4483 7.21224C26.4138 7.19046 26.3738 7.17889 26.333 7.17889C26.2922 7.17889 26.2522 7.19046 26.2177 7.21224C26.1832 7.23403 26.1556 7.26515 26.138 7.30199Z" fill="#3EAF91"/>
<path d="M19.459 9.84001L15.834 15.383H23.473L19.849 9.84001C19.8314 9.80317 19.8038 9.77205 19.7693 9.75026C19.7348 9.72847 19.6948 9.71692 19.654 9.71692C19.6132 9.71692 19.5732 9.72847 19.5387 9.75026C19.5042 9.77205 19.4765 9.80317 19.459 9.84001Z" fill="#86D5B5"/>
<path opacity="0.1" d="M15.838 4.98398C15.7511 4.98424 15.6678 5.01888 15.6064 5.08034C15.5449 5.14179 15.5103 5.22507 15.51 5.31198V15.052C15.5103 15.1389 15.5449 15.2222 15.6064 15.2836C15.6678 15.3451 15.7511 15.3797 15.838 15.38H17.413V4.97998L15.838 4.98398Z" fill="#231F20"/>
<path d="M54.761 30.9539C54.7605 31.1076 54.6992 31.2548 54.5905 31.3635C54.4819 31.4722 54.3347 31.5334 54.181 31.534H46.842C46.6883 31.5334 46.5411 31.4722 46.4325 31.3635C46.3238 31.2548 46.2626 31.1076 46.262 30.9539V29.6339C46.2626 29.4803 46.3238 29.3331 46.4325 29.2244C46.5411 29.1158 46.6883 29.0545 46.842 29.054H54.181C54.3347 29.0545 54.4819 29.1158 54.5905 29.2244C54.6992 29.3331 54.7605 29.4803 54.761 29.6339V30.9539Z" fill="#63C3EA"/>
</svg>
