<svg width="53" height="53" viewBox="0 0 53 53" fill="none" xmlns="http://www.w3.org/2000/svg">
<circle cx="26.5" cy="26.5" r="26" fill="#A594EB" stroke="white"/>
<path d="M29.5059 32.7441C29.5059 32.3809 29.4004 32.0527 29.1895 31.7598C28.9785 31.4668 28.5859 31.1973 28.0117 30.9512C27.4492 30.6934 26.6348 30.459 25.5684 30.248C24.6074 30.0371 23.7109 29.7734 22.8789 29.457C22.0586 29.1289 21.3438 28.7363 20.7344 28.2793C20.1367 27.8223 19.668 27.2832 19.3281 26.6621C18.9883 26.0293 18.8184 25.3086 18.8184 24.5C18.8184 23.7031 18.9883 22.9531 19.3281 22.25C19.6797 21.5469 20.1777 20.9258 20.8223 20.3867C21.4785 19.8359 22.2754 19.4082 23.2129 19.1035C24.1621 18.7871 25.2285 18.6289 26.4121 18.6289C28.0645 18.6289 29.4824 18.8926 30.666 19.4199C31.8613 19.9473 32.7754 20.6738 33.4082 21.5996C34.0527 22.5137 34.375 23.5566 34.375 24.7285H29.3125C29.3125 24.2363 29.207 23.7969 28.9961 23.4102C28.7969 23.0117 28.4805 22.7012 28.0469 22.4785C27.625 22.2441 27.0742 22.127 26.3945 22.127C25.832 22.127 25.3457 22.2266 24.9355 22.4258C24.5254 22.6133 24.209 22.8711 23.9863 23.1992C23.7754 23.5156 23.6699 23.8672 23.6699 24.2539C23.6699 24.5469 23.7285 24.8105 23.8457 25.0449C23.9746 25.2676 24.1797 25.4727 24.4609 25.6602C24.7422 25.8477 25.1055 26.0234 25.5508 26.1875C26.0078 26.3398 26.5703 26.4805 27.2383 26.6094C28.6094 26.8906 29.834 27.2598 30.9121 27.7168C31.9902 28.1621 32.8457 28.7715 33.4785 29.5449C34.1113 30.3066 34.4277 31.3086 34.4277 32.5508C34.4277 33.3945 34.2402 34.168 33.8652 34.8711C33.4902 35.5742 32.9512 36.1895 32.248 36.7168C31.5449 37.2324 30.7012 37.6367 29.7168 37.9297C28.7441 38.2109 27.6484 38.3516 26.4297 38.3516C24.6602 38.3516 23.1602 38.0352 21.9297 37.4023C20.7109 36.7695 19.7852 35.9668 19.1523 34.9941C18.5312 34.0098 18.2207 33.002 18.2207 31.9707H23.0195C23.043 32.6621 23.2188 33.2188 23.5469 33.6406C23.8867 34.0625 24.3145 34.3672 24.8301 34.5547C25.3574 34.7422 25.9258 34.8359 26.5352 34.8359C27.1914 34.8359 27.7363 34.748 28.1699 34.5723C28.6035 34.3848 28.9316 34.1387 29.1543 33.834C29.3887 33.5176 29.5059 33.1543 29.5059 32.7441Z" fill="white"/>
</svg>
